<svg xmlns="http://www.w3.org/2000/svg" xmlns:xlink="http://www.w3.org/1999/xlink" version="1.1" x="0px" y="0px" viewBox="4 15.977999687194824 52 30.044998168945312" enable-background="new 0 0 60 60" xml:space="preserve"><path d="M29.317,40.737l-0.214-0.098l-12.7-5.782v5.311c0,2.355,5.782,5.855,12.914,5.855c7.132,0,12.914-3.501,12.914-5.855v-5.311  L29.317,40.737z"></path><polygon points="29.317,15.978 4,27.504 29.317,39.029 54.632,27.504 "></polygon><path d="M54.176,36.799l-0.002-0.126c0.534-0.339,0.944-0.996,0.944-1.679c0-0.956-0.623-1.789-1.57-1.939v-5.551h-0.503v5.582  c-0.885,0.214-1.62,0.954-1.62,1.846c0,0.683,0.259,1.278,0.793,1.617l-0.054,0.249l-1.873,7.79h2.855H56L54.176,36.799z"></path></svg>