<svg data-v-0dd9719b="" version="1.0" xmlns="http://www.w3.org/2000/svg" xmlns:xlink="http://www.w3.org/1999/xlink" width="100%" height="100%" viewBox="0 0 60 37.82744598388672" preserveAspectRatio="xMidYMid meet" color-interpolation-filters="sRGB" style="margin: auto;"> <rect data-v-0dd9719b="" x="0" y="0" width="100%" height="100%" fill="#ffffff" fill-opacity="1" class="background" style="display: none;"></rect> <rect data-v-0dd9719b="" x="0" y="0" width="100%" height="100%" fill="url(#watermark)" fill-opacity="1" class="watermarklayer" style="display: none;"></rect> <g data-v-0dd9719b="" class="imagesvg isNoFont"><g><rect fill="#93339e" fill-opacity="0" stroke-width="2" x="0" y="0" width="60" height="37.82744381048451" class="image-rect"></rect> <svg filter="url(#colors4142129833)" x="0" y="0" width="60" height="37.82744381048451" filtersec="colorsf8354644174" class="image-svg-svg primary" style="overflow: visible;"><svg xmlns="http://www.w3.org/2000/svg" xmlns:xlink="http://www.w3.org/1999/xlink" version="1.1" x="0px" y="0px" viewBox="1.999678373336792 19 91.99679565429688 58" enable-background="new 0 0 96 96" xml:space="preserve"><path d="M47.772,46.8C47.188,46.932,46.592,47,46,47c-0.66,0-1.316-0.084-1.948-0.244L18.66,40.408l-4.608,20.14  c-0.156,0.672,0.048,1.376,0.536,1.868c5.96,5.956,20.136,8.084,31.416,8.084c11.275,0,25.452-2.18,31.416-8.145  c0.484-0.487,0.688-1.248,0.536-1.916L73.48,40.964L47.772,46.8z"></path><path d="M90.54,25.036l-44-6C46.364,19.012,46.18,19,46,19c-0.2,0-0.396,0.016-0.592,0.044l-40,6  c-1.888,0.284-3.308,1.86-3.404,3.764c-0.088,1.904,1.176,3.608,3.028,4.072l40,10C45.348,42.964,45.676,43,46,43  c0.296,0,0.592-0.032,0.888-0.096l44-10c1.887-0.428,3.195-2.148,3.104-4.08C93.916,26.896,92.456,25.296,90.54,25.036z"></path><path d="M88,37c-1.1,0-2,0.896-2,2v24c0,1.1,0.9,2,2,2s2-0.9,2-2V39C90,37.896,89.1,37,88,37z"></path><path d="M88,69c-1.1,0-2,0.9-2,2v4c0,1.1,0.9,2,2,2s2-0.9,2-2v-4C90,69.9,89.1,69,88,69z"></path></svg></svg> <defs><filter id="colors4142129833"><feColorMatrix type="matrix" values="0 0 0 0 0.26953125  0 0 0 0 0.04296875  0 0 0 0 0.40625  0 0 0 1 0" class="icon-fecolormatrix"></feColorMatrix></filter> <filter id="colorsf8354644174"><feColorMatrix type="matrix" values="0 0 0 0 0.99609375  0 0 0 0 0.99609375  0 0 0 0 0.99609375  0 0 0 1 0" class="icon-fecolormatrix"></feColorMatrix></filter> <filter id="colorsb165475289"><feColorMatrix type="matrix" values="0 0 0 0 0  0 0 0 0 0  0 0 0 0 0  0 0 0 1 0" class="icon-fecolormatrix"></feColorMatrix></filter></defs></g></g><defs v-gra="od"></defs></svg>